# xmcd
#
# Track frame offsets:
#	150
#	14438
#	25307
#	41403
#	59290
#	71836
#	84460
#	93194
#	108025
#	120405
#	134134
#	145095
#	157238
#	168176
#	182517
#	198380
#	209631
#	222404
#	232436
#	252715
#
# Disc length: 3519 seconds
#
# Revision: 0
# Processed by: cddbd v1.5.1PL2 Copyright (c) Steve Scherf et al.
# Submitted via: audiograbber 1.83.01
#
DISCID=2d0dbd14
DTITLE=Elvis Presley - Elvis Inspirational
DYEAR=2006
DGENRE=Gospel
TTITLE0=If I Can Dream
TTITLE1=Crying In The Chapel
TTITLE2=Amazing Grace
TTITLE3=Danny Boy
TTITLE4=In The Ghetto
TTITLE5=Mama Liked The Roses
TTITLE6=An Evening Prayer
TTITLE7=Put Your Hand In The Hand
TTITLE8=You'll Never Walk Alone
TTITLE9=How Great Thou Art
TTITLE10=I'll Take You Home Again Kathleen
TTITLE11=He Is My Everything
TTITLE12=A Thing Called Love
TTITLE13=And The Grass Won't Pay No Mind
TTITLE14=If That Isn't Love
TTITLE15=Help Me
TTITLE16=Only Believe
TTITLE17=Wonderful World
TTITLE18=Bridge Over Troubled Water
TTITLE19=The Impossible Dream
EXTD=
EXTT0=
EXTT1=
EXTT2=
EXTT3=
EXTT4=
EXTT5=
EXTT6=
EXTT7=
EXTT8=
EXTT9=
EXTT10=
EXTT11=
EXTT12=
EXTT13=
EXTT14=
EXTT15=
EXTT16=
EXTT17=
EXTT18=
EXTT19=
PLAYORDER=
